<svg width="326" height="81" viewBox="0 0 326 81" fill="none" xmlns="http://www.w3.org/2000/svg">
<g clip-path="url(#clip0_2709_803)">
<path d="M127.167 59.2941L125.698 60.6765C124.715 59.6763 123.547 58.8771 122.259 58.3235C121.11 57.8161 119.871 57.546 118.615 57.5294C117.139 57.5238 115.687 57.8986 114.398 58.6177C113.113 59.2928 112.039 60.3108 111.297 61.5588C110.582 62.7434 110.206 64.1015 110.21 65.4853C110.211 66.9134 110.608 68.3131 111.356 69.5294C112.121 70.7749 113.207 71.7909 114.5 72.4706C115.854 73.2004 117.371 73.5749 118.909 73.5588C120.665 73.6439 122.395 73.1135 123.802 72.0588C125.12 71.0103 125.971 69.4825 126.168 67.8088H120.187V65.9265H128.284C128.34 67.1957 128.14 68.4631 127.695 69.6532C127.251 70.8432 126.572 71.9315 125.698 72.853C124.787 73.7227 123.709 74.398 122.529 74.8379C121.35 75.2777 120.093 75.473 118.835 75.4118C117.282 75.4808 115.733 75.1964 114.305 74.5799C112.877 73.9635 111.608 73.0312 110.592 71.853C109.061 70.1054 108.228 67.8534 108.255 65.5294C108.244 63.782 108.706 62.0642 109.592 60.5588C110.463 59.0429 111.734 57.7963 113.266 56.9559C114.888 56.0744 116.711 55.6286 118.556 55.6618C120.096 55.6485 121.624 55.9383 123.053 56.5147C124.584 57.1782 125.98 58.1206 127.167 59.2941ZM143.331 70.3235L144.801 71.1177C144.375 72.021 143.787 72.8384 143.067 73.5294C142.428 74.1137 141.685 74.5726 140.877 74.8824C139.996 75.1933 139.063 75.333 138.129 75.2941C137.131 75.3491 136.134 75.1764 135.213 74.7892C134.291 74.402 133.47 73.8103 132.81 73.0588C131.566 71.6742 130.88 69.8767 130.885 68.0147C130.865 66.3039 131.442 64.6398 132.516 63.3088C133.155 62.4582 133.989 61.7746 134.949 61.3163C135.908 60.858 136.964 60.6385 138.027 60.6765C139.118 60.6399 140.202 60.8652 141.189 61.3333C142.176 61.8015 143.036 62.499 143.699 63.3677C144.711 64.7393 145.229 66.4136 145.168 68.1177H132.722C132.721 69.5819 133.278 70.9915 134.279 72.0588C134.758 72.5468 135.334 72.9296 135.969 73.1828C136.604 73.4359 137.285 73.554 137.968 73.5294C138.675 73.5326 139.377 73.4081 140.04 73.1618C140.662 72.9381 141.24 72.6044 141.744 72.1765C142.337 71.633 142.852 71.0093 143.272 70.3235H143.331ZM143.331 66.5735C143.149 65.7484 142.793 64.9715 142.288 64.2941C141.805 63.6948 141.185 63.2206 140.481 62.9118C139.736 62.5615 138.923 62.3807 138.1 62.3824C136.804 62.3607 135.548 62.834 134.588 63.7059C133.768 64.503 133.205 65.5273 132.972 66.6471L143.331 66.5735ZM148.621 61.0294H150.414V63.5147C151.045 62.6406 151.857 61.9133 152.795 61.3824C153.665 60.9119 154.641 60.6691 155.631 60.6765C156.608 60.6611 157.568 60.9321 158.393 61.4559C159.189 61.9754 159.809 62.7239 160.171 63.6029C160.637 64.9434 160.837 66.3622 160.759 67.7794V75H158.966V68.3088C159.004 67.2311 158.935 66.1524 158.761 65.0882C158.644 64.2691 158.217 63.526 157.569 63.0118C156.922 62.4976 156.102 62.2513 155.278 62.3235C154.2 62.3098 153.155 62.6917 152.339 63.3971C151.501 64.0765 150.908 65.0111 150.649 66.0588C150.426 67.3055 150.337 68.5726 150.385 69.8382V75H148.563L148.621 61.0294ZM164.359 61.0294H166.049V67.5294C166.003 68.6244 166.092 69.7209 166.314 70.7941C166.547 71.6199 167.068 72.3347 167.783 72.8088C168.574 73.3303 169.512 73.583 170.458 73.5294C171.359 73.5608 172.248 73.3088 173 72.8088C173.684 72.3547 174.2 71.6882 174.469 70.9118C174.7 69.7901 174.789 68.6439 174.734 67.5V61.0294H176.556V67.8529C176.641 69.3534 176.416 70.8553 175.895 72.2647C175.468 73.2143 174.76 74.0099 173.867 74.5441C172.822 75.0856 171.663 75.3682 170.487 75.3682C169.311 75.3682 168.152 75.0856 167.107 74.5441C166.206 74.0083 165.493 73.2071 165.065 72.25C164.557 70.8371 164.332 69.338 164.403 67.8382L164.359 61.0294ZM181.111 55.2941C181.406 55.2893 181.696 55.3735 181.942 55.5357C182.189 55.6979 182.381 55.9305 182.493 56.2034C182.606 56.4763 182.634 56.7767 182.573 57.0657C182.513 57.3546 182.367 57.6187 182.154 57.8235C182.017 57.9598 181.854 58.0677 181.675 58.1408C181.496 58.214 181.305 58.2511 181.111 58.25C180.82 58.2488 180.537 58.1614 180.296 57.9988C180.055 57.8362 179.867 57.6057 179.757 57.3366C179.647 57.0674 179.619 56.7716 179.677 56.4866C179.735 56.2016 179.876 55.9401 180.083 55.7353C180.207 55.6012 180.357 55.4931 180.523 55.4174C180.69 55.3416 180.87 55.2997 181.052 55.2941H181.111ZM180.229 61.0294H182.007V75H180.229V61.0294ZM185.725 61.0294H187.518V63.5147C188.149 62.6406 188.961 61.9133 189.898 61.3824C190.769 60.9119 191.745 60.6691 192.735 60.6765C193.711 60.6637 194.671 60.9344 195.497 61.4559C196.293 61.9754 196.913 62.7239 197.275 63.6029C197.728 64.9464 197.922 66.3635 197.848 67.7794V75H196.07V68.3088C196.108 67.2311 196.039 66.1524 195.865 65.0882C195.747 64.2663 195.319 63.521 194.668 63.0064C194.017 62.4918 193.193 62.2473 192.367 62.3235C191.289 62.3098 190.244 62.6917 189.428 63.3971C188.587 64.0757 187.988 65.01 187.724 66.0588C187.516 67.3073 187.432 68.5733 187.474 69.8382V75H185.681L185.725 61.0294ZM213.395 70.3235L214.865 71.1177C214.421 72.0257 213.814 72.8435 213.072 73.5294C212.431 74.1107 211.689 74.5693 210.882 74.8824C210.005 75.2133 209.072 75.373 208.135 75.353C207.137 75.4079 206.139 75.2352 205.218 74.848C204.296 74.4608 203.475 73.8691 202.815 73.1177C201.571 71.733 200.885 69.9355 200.89 68.0735C200.87 66.3628 201.447 64.6986 202.521 63.3677C203.16 62.517 203.994 61.8335 204.954 61.3751C205.913 60.9168 206.969 60.6973 208.032 60.7353C209.123 60.6988 210.207 60.924 211.194 61.3921C212.181 61.8603 213.041 62.5578 213.704 63.4265C214.717 64.7976 215.235 66.4723 215.173 68.1765H202.786C202.799 69.6204 203.355 71.0064 204.343 72.0588C204.822 72.5468 205.398 72.9296 206.033 73.1828C206.668 73.4359 207.349 73.554 208.032 73.5294C208.739 73.5326 209.441 73.4081 210.104 73.1618C210.726 72.9381 211.303 72.6044 211.808 72.1765C212.401 71.633 212.916 71.0093 213.336 70.3235H213.395ZM213.395 66.5735C213.213 65.7484 212.857 64.9715 212.352 64.2941C211.867 63.6912 211.241 63.2165 210.53 62.9118C209.791 62.5598 208.982 62.3789 208.164 62.3824C206.868 62.3607 205.612 62.834 204.652 63.7059C203.834 64.5065 203.267 65.5287 203.021 66.6471L213.395 66.5735ZM241.976 72.8971L244.768 76.4265H242.461L240.536 73.9853C238.621 75.1217 236.384 75.5936 234.174 75.3277C231.963 75.0618 229.902 74.073 228.31 72.5147C227.373 71.623 226.628 70.5481 226.123 69.3567C225.617 68.1652 225.361 66.8826 225.371 65.5882C225.36 63.8242 225.816 62.0887 226.694 60.5588C227.545 59.0438 228.788 57.7865 230.293 56.9195C231.799 56.0525 233.51 55.6078 235.246 55.6324C236.55 55.6126 237.844 55.8545 239.053 56.3438C240.261 56.8331 241.36 57.5598 242.283 58.481C243.206 59.4022 243.936 60.4993 244.428 61.7074C244.921 62.9155 245.166 64.2101 245.15 65.5147C245.171 66.8781 244.905 68.2307 244.371 69.4853C243.793 70.7773 242.958 71.9381 241.917 72.8971H241.976ZM240.815 71.4265C242.108 70.1524 242.951 68.4913 243.216 66.6949C243.482 64.8984 243.155 63.0644 242.285 61.4706C241.594 60.2387 240.577 59.2211 239.346 58.5294C238.138 57.8208 236.764 57.4453 235.364 57.4412C233.963 57.4417 232.588 57.8175 231.381 58.5294C230.149 59.2186 229.131 60.2368 228.442 61.4706C227.736 62.7264 227.376 64.1474 227.399 65.5882C227.391 66.6234 227.587 67.6499 227.976 68.6092C228.365 69.5685 228.939 70.4418 229.664 71.1792C230.39 71.9166 231.254 72.5037 232.207 72.907C233.16 73.3102 234.182 73.5217 235.217 73.5294C236.651 73.5408 238.063 73.1649 239.302 72.4412L235.114 67.1765H237.406L240.815 71.4265ZM248.501 61.0294H250.279V67.5294C250.233 68.6244 250.322 69.7209 250.543 70.7941C250.776 71.6199 251.298 72.3347 252.013 72.8088C252.771 73.3197 253.67 73.5818 254.584 73.5588C255.486 73.5902 256.375 73.3382 257.126 72.8382C257.811 72.3841 258.327 71.7176 258.596 70.9412C258.827 69.8195 258.916 68.6733 258.86 67.5294V61.0294H260.682V67.8529C260.768 69.3534 260.542 70.8553 260.021 72.2647C259.594 73.2143 258.886 74.0099 257.993 74.5441C256.949 75.0856 255.79 75.3682 254.614 75.3682C253.437 75.3682 252.278 75.0856 251.234 74.5441C250.333 74.0083 249.62 73.2071 249.191 72.25C248.684 70.8371 248.459 69.338 248.53 67.8382L248.501 61.0294ZM278.478 61.0294V75H276.714V72.5441C276.033 73.4023 275.177 74.1044 274.201 74.6029C273.244 75.0664 272.193 75.3029 271.13 75.2941C270.169 75.3247 269.212 75.1505 268.322 74.7828C267.433 74.4152 266.632 73.8627 265.973 73.1618C264.613 71.767 263.863 69.8893 263.886 67.9412C263.872 66.9867 264.052 66.0395 264.416 65.1571C264.78 64.2747 265.319 63.4757 266.002 62.8088C266.653 62.1213 267.44 61.5768 268.313 61.2097C269.186 60.8427 270.125 60.6611 271.072 60.6765C272.148 60.6586 273.213 60.9061 274.172 61.3971C275.142 61.9248 275.974 62.6758 276.597 63.5882V61.0294H278.478ZM271.336 62.3971C270.366 62.3933 269.413 62.647 268.573 63.1324C267.729 63.6246 267.034 64.3359 266.56 65.1912C266.08 66.0494 265.827 67.0163 265.826 68C265.827 68.9856 266.085 69.9538 266.575 70.8088C267.048 71.6768 267.749 72.3989 268.603 72.8971C269.423 73.3914 270.364 73.6508 271.321 73.6471C272.295 73.6472 273.252 73.3938 274.099 72.9118C274.951 72.4454 275.654 71.7468 276.126 70.8971C276.603 70.0281 276.846 69.0501 276.832 68.0588C276.852 67.3126 276.722 66.57 276.449 65.8752C276.177 65.1804 275.767 64.5476 275.245 64.0147C274.733 63.4831 274.115 63.0645 273.432 62.786C272.749 62.5074 272.015 62.3749 271.277 62.3971H271.336ZM282.137 55.6618H283.929V75H282.137V55.6618ZM288.264 55.2941C288.459 55.2949 288.651 55.3343 288.83 55.4101C289.009 55.4858 289.171 55.5963 289.308 55.7353C289.444 55.8727 289.551 56.0357 289.625 56.2148C289.698 56.394 289.735 56.5859 289.734 56.7794C289.735 56.973 289.698 57.1648 289.625 57.344C289.551 57.5232 289.444 57.6861 289.308 57.8235C289.17 57.9598 289.007 58.0677 288.828 58.1408C288.649 58.214 288.458 58.2511 288.264 58.25C287.974 58.2488 287.69 58.1614 287.449 57.9988C287.208 57.8362 287.021 57.6057 286.91 57.3366C286.8 57.0674 286.772 56.7716 286.83 56.4866C286.888 56.2016 287.029 55.9401 287.236 55.7353C287.372 55.5883 287.538 55.4728 287.723 55.3966C287.909 55.3204 288.108 55.2854 288.308 55.2941H288.264ZM287.368 61.0294H289.161V75H287.368V61.0294ZM294.48 55.8824H296.273V61.0294H299.109V62.5H296.273V75H294.48V62.5735H292.041V61.1029H294.48V55.8824ZM300.358 61.0441H302.239L307.029 71.75L311.658 61.0441H313.568L305.281 80.0441H303.385L306.059 73.8971L300.358 61.0441ZM142.67 9.41177H143.155V46.8382H136.102V26.8088L125.139 38.5735H124.669L113.795 26.8088V46.8382H106.756V9.41177H107.183L124.904 29.0294L142.67 9.41177ZM167.372 9.7353H160.171L146.593 46.8382H154.602L163.757 20.3677L172.926 46.8382H180.935L167.372 9.7353ZM206.195 30.5735L184.844 9.41177H184.373V46.8382H191.412V26.0588L212.763 47.2647H213.248V9.7353H206.195V30.5735ZM217.701 9.7353V16.5147H244.709V9.7353H217.701ZM227.767 46.8382H234.82V22.0588H227.767V46.8382ZM263.798 9.41177C253.144 9.41177 245.782 17.6765 245.782 28.3382C245.782 39 253.129 47.2647 263.798 47.2647C274.466 47.2647 281.755 39 281.755 28.3382C281.755 17.6765 274.407 9.41177 263.798 9.41177ZM263.798 40.2941C257.009 40.2941 252.982 35.2059 252.982 28.4118C252.982 21.6177 257.009 16.5441 263.798 16.5441C270.587 16.5441 274.539 21.6324 274.539 28.4118C274.539 35.1912 270.513 40.2941 263.798 40.2941ZM263.798 24.8088C264.509 24.8117 265.204 25.0255 265.794 25.4232C266.384 25.8208 266.843 26.3845 267.113 27.0431C267.384 27.7017 267.453 28.4257 267.312 29.1236C267.172 29.8216 266.828 30.4622 266.324 30.9646C265.819 31.467 265.178 31.8087 264.48 31.9465C263.782 32.0844 263.059 32.0121 262.402 31.739C261.745 31.4659 261.184 31.0041 260.789 30.4119C260.394 29.8197 260.183 29.1237 260.183 28.4118C260.183 27.9374 260.276 27.4677 260.458 27.0296C260.64 26.5915 260.907 26.1937 261.242 25.8589C261.578 25.5241 261.977 25.2591 262.415 25.0789C262.854 24.8987 263.324 24.8069 263.798 24.8088ZM305.81 46.8677H313.745L305.81 33.0882C307.982 32.1795 309.823 30.6239 311.082 28.6324C312.342 26.6409 312.958 24.31 312.848 21.9559C312.848 15.1618 308.234 9.76471 299.976 9.76471H286.251V16.5441H299.77C300.511 16.4795 301.258 16.5726 301.961 16.8173C302.664 17.0619 303.307 17.4527 303.848 17.9638C304.39 18.4749 304.817 19.0948 305.101 19.7829C305.386 20.4709 305.522 21.2115 305.501 21.9559C305.524 22.7027 305.389 23.446 305.106 24.1371C304.822 24.8283 304.396 25.4518 303.855 25.9667C303.314 26.4817 302.671 26.8766 301.967 27.1256C301.263 27.3746 300.514 27.4722 299.77 27.4118H286.251V46.8382H293.304V34.1177H298.433L305.81 46.8677ZM320.827 10.9265H322.194L320.827 8.57353C321.2 8.41709 321.516 8.14973 321.731 7.80773C321.947 7.46573 322.052 7.06565 322.032 6.66177C322.042 6.37484 321.99 6.08917 321.881 5.82364C321.772 5.55811 321.608 5.31875 321.4 5.12139C321.191 4.92402 320.944 4.77314 320.673 4.6787C320.402 4.58426 320.114 4.54841 319.828 4.57353H317.477V5.7353H319.799C319.926 5.7226 320.055 5.73737 320.176 5.77862C320.297 5.81987 320.408 5.88663 320.502 5.97442C320.595 6.0622 320.668 6.16897 320.717 6.28754C320.766 6.4061 320.788 6.53371 320.783 6.66177C320.788 6.7904 320.765 6.91854 320.717 7.03777C320.668 7.15699 320.595 7.2646 320.502 7.3535C320.409 7.44241 320.298 7.5106 320.177 7.55359C320.056 7.59659 319.927 7.61341 319.799 7.60294H317.477V10.9265H318.682V8.82353H319.564L320.827 10.9265ZM319.755 14.6177C318.045 14.5601 316.428 13.8266 315.257 12.578C314.086 11.3293 313.458 9.66726 313.51 7.95589C313.451 7.09907 313.569 6.23931 313.856 5.43001C314.143 4.62072 314.594 3.87917 315.179 3.25143C315.765 2.6237 316.473 2.12318 317.26 1.78098C318.048 1.43877 318.897 1.26218 319.755 1.26218C320.613 1.26218 321.462 1.43877 322.249 1.78098C323.036 2.12318 323.745 2.6237 324.33 3.25143C324.916 3.87917 325.366 4.62072 325.654 5.43001C325.941 6.23931 326.059 7.09907 326 7.95589C326.052 9.66726 325.423 11.3293 324.253 12.578C323.082 13.8266 321.465 14.5601 319.755 14.6177ZM319.755 2.13236C319.013 2.1607 318.284 2.33564 317.61 2.64711C316.936 2.95858 316.33 3.40042 315.828 3.94719C315.325 4.49395 314.935 5.13484 314.681 5.83292C314.427 6.53101 314.314 7.27251 314.347 8.01471C314.292 8.75894 314.391 9.50649 314.638 10.2107C314.885 10.9148 315.275 11.5604 315.782 12.1072C316.29 12.6539 316.904 13.09 317.588 13.3883C318.271 13.6865 319.009 13.8404 319.755 13.8404C320.5 13.8404 321.238 13.6865 321.922 13.3883C322.605 13.09 323.22 12.6539 323.727 12.1072C324.235 11.5604 324.624 10.9148 324.871 10.2107C325.118 9.50649 325.217 8.75894 325.162 8.01471C325.196 7.27251 325.082 6.53101 324.828 5.83292C324.574 5.13484 324.185 4.49395 323.682 3.94719C323.179 3.40042 322.574 2.95858 321.9 2.64711C321.226 2.33564 320.497 2.1607 319.755 2.13236ZM317.477 9.55883H318.682V4.57353H317.477V9.55883ZM40.469 81C32.465 81 24.6407 78.6247 17.9856 74.1745C11.3305 69.7243 6.14353 63.3991 3.08053 55.9987C0.0175345 48.5983 -0.783886 40.4551 0.777618 32.5989C2.33912 24.7426 6.19342 17.5262 11.8531 11.8622C17.5128 6.19815 24.7237 2.3409 32.5739 0.778199C40.4241 -0.784502 48.561 0.0175327 55.9558 3.08288C63.3505 6.14823 69.6709 11.3392 74.1177 17.9994C78.5645 24.6596 80.9379 32.4899 80.9379 40.5C80.9263 51.2377 76.6588 61.5322 69.072 69.1249C61.4851 76.7176 51.1984 80.9883 40.469 81ZM40.469 1.47059C32.7415 1.4706 25.1876 3.76458 18.7633 8.06225C12.3389 12.3599 7.33274 18.4682 4.37825 25.614C1.42375 32.7599 0.653708 40.6222 2.16555 48.2062C3.67739 55.7902 7.40317 62.755 12.8715 68.2192C18.3397 73.6834 25.3048 77.4016 32.8852 78.9032C40.4656 80.4047 48.3208 79.6223 55.4567 76.6547C62.5926 73.6872 68.6886 68.668 72.9733 62.2323C77.258 55.7965 79.5389 48.2334 79.5273 40.5C79.5 30.1469 75.3744 20.2266 68.0537 12.9113C60.7331 5.59611 50.8141 1.48223 40.469 1.47059ZM40.469 78.3529C32.9997 78.3529 25.6982 76.1364 19.4878 71.9835C13.2773 67.8306 8.43688 61.928 5.57853 55.022C2.72017 48.116 1.9723 40.5169 3.42947 33.1856C4.88665 25.8542 8.48343 19.12 13.765 13.8343C19.0465 8.54875 25.7756 4.94921 33.1014 3.49091C40.4271 2.03262 48.0204 2.78107 54.9211 5.64162C61.8218 8.50216 67.7199 13.3463 71.8696 19.5615C76.0192 25.7768 78.2341 33.0839 78.2341 40.5588C78.2069 50.5687 74.2175 60.1599 67.1394 67.2324C60.0612 74.305 50.4712 78.2825 40.469 78.2941V78.3529ZM40.469 5.2353C33.4938 5.2353 26.6753 7.30526 20.8756 11.1834C15.076 15.0616 10.5557 20.5738 7.88646 27.0229C5.21718 33.4721 4.51877 40.5686 5.87956 47.415C7.24035 54.2613 10.5992 60.5502 15.5314 65.4861C20.4636 70.4221 26.7476 73.7835 33.5887 75.1454C40.4299 76.5072 47.5209 75.8083 53.9651 73.1369C60.4093 70.4656 65.9173 65.9419 69.7925 60.1378C73.6677 54.3337 75.736 47.5099 75.736 40.5294C75.7438 35.8896 74.8373 31.2938 73.0684 27.0049C71.2995 22.716 68.703 18.8183 65.4274 15.5347C62.1517 12.2511 58.2613 9.64607 53.9787 7.8687C49.6961 6.09132 45.1053 5.17647 40.469 5.17647V5.2353ZM39.94 76.4265L28.919 49.9559L39.9253 60.2941L50.9609 50L39.94 76.4265ZM32.769 55.5294L39.94 72.7059L47.1109 55.5294L39.9253 62.2794L32.769 55.5294ZM51.4312 77.8088L51.2401 47.1471L39.8518 58.3382L28.6545 47.1765L28.4782 77.5441L15.4147 45.1912L14.8563 12.3235L39.8371 38.1324L64.6563 11L64.818 45.3971L51.4312 77.8088ZM52.9888 42.9706L53.1504 69.0294L63.0252 45.0588L62.8783 15.5294L39.8665 40.7206L16.6931 16.7647L17.1633 45.0441L26.7589 68.6618L26.9205 42.9559L39.8518 55.8824L52.9888 42.9706ZM39.2199 34.9853L32.4163 27.7941L32.3282 24.4706H28.7133L15.8114 11.5441H62.8342L49.9176 24.4706H46.3909L46.2293 27.8088L39.2199 34.9853ZM34.1503 27.0588L39.2199 32.4265L44.4365 27.0588L44.6423 22.6471H49.1388L58.5287 13.25H20.0582L29.3892 22.7059H33.9446L34.1503 27.0588Z" fill="white"/>
</g>
<defs>
<clipPath id="clip0_2709_803">
<rect width="326" height="81" fill="white"/>
</clipPath>
</defs>
</svg>
